<?xml version="1.0" encoding="utf-8"?>
<!-- Generator: Adobe Illustrator 25.0.1, SVG Export Plug-In . SVG Version: 6.00 Build 0)  -->
<svg version="1.1" id="Calque_1" xmlns="http://www.w3.org/2000/svg" xmlns:xlink="http://www.w3.org/1999/xlink" x="0px" y="0px"
	 width="162px" height="41px" viewBox="0 0 162 41" enable-background="new 0 0 162 41" xml:space="preserve">
<g>
	<g>
		<path fill="#FFFFFF" d="M22.537,12.002l-7.694,20.102H9.685l-7.86-20.102h6.319l4.104,12.495l4.004-12.495H22.537z"/>
	</g>
	<g>
		<path fill="#FFFFFF" d="M34.524,28.838h-7.126l-1.113,3.265h-5.934l7.896-20.102h5.413l8.069,20.102h-6.098L34.524,28.838z
			 M30.95,18.277l-2.203,6.229h4.425L30.95,18.277z"/>
	</g>
	<g>
		<path fill="#FFFFFF" d="M61.608,12.002v20.102h-4.579l-7.986-10.909v10.909h-5.366V12.002h4.847l7.718,10.546V12.002H61.608z"/>
	</g>
	<g>
		<path fill="#FFFFFF" d="M92.01,21.361c0,6.577-4.294,11.25-10.59,11.25c-6.159,0-10.708-4.426-10.708-10.542
			s4.467-10.576,10.659-10.576c5.269,0,9.58,3.297,10.43,7.969h-5.803c-0.727-1.693-2.526-2.782-4.576-2.782
			c-3.012,0-5.04,2.178-5.04,5.39c0,3.179,1.996,5.357,5.04,5.357c2.114,0,3.926-1.023,4.557-2.573h-4.992v-3.492H92.01z"/>
	</g>
	<g>
		<path fill="#FFFFFF" d="M93.767,22.053c0-6.144,4.611-10.558,11.073-10.558c6.446,0,11.041,4.398,11.041,10.558
			s-4.595,10.559-11.041,10.559C98.378,32.612,93.767,28.197,93.767,22.053z M110.115,22.054c0-3.146-2.215-5.406-5.275-5.406
			s-5.307,2.276-5.307,5.406c0,3.129,2.247,5.405,5.307,5.405S110.115,25.199,110.115,22.054z"/>
	</g>
	<g>
		<path fill="#FFFFFF" d="M138.986,21.361c0,6.577-4.294,11.25-10.589,11.25c-6.16,0-10.709-4.426-10.709-10.542
			s4.467-10.576,10.659-10.576c5.269,0,9.58,3.297,10.43,7.969h-5.803c-0.727-1.693-2.526-2.782-4.576-2.782
			c-3.012,0-5.04,2.178-5.04,5.39c0,3.179,1.996,5.357,5.04,5.357c2.114,0,3.926-1.023,4.557-2.573h-4.992v-3.492H138.986z"/>
	</g>
	<g>
		<path fill="#FFFFFF" d="M159,12.002v20.102h-5.587v-7.716h-6.031v7.716h-5.587V12.002h5.587v7.252h6.031v-7.252H159z"/>
	</g>
</g>
<path fill="#FFD400" d="M104.695,2.297c0,0-4.023,2.776,0,7.423C104.695,9.72,108.986,5.515,104.695,2.297z"/>
<path fill="#FFD400" d="M99.511,11.391c0,0,0.882-4.808-5.249-5.249C94.263,6.142,94.201,12.149,99.511,11.391z"/>
<path fill="#FFD400" d="M114.52,5.784c0,0-4.808-0.882-5.249,5.249C109.271,11.032,115.278,11.094,114.52,5.784z"/>
</svg>
